<svg width="131" height="131" viewBox="0 0 131 131" fill="none" xmlns="http://www.w3.org/2000/svg">
<g filter="url(#filter0_d_1_266)">
<rect x="4.3125" y="0.046875" width="10" height="10" rx="5" fill="#81818B" fill-opacity="0.2"/>
<rect x="20.3125" y="0.046875" width="10" height="10" rx="5" fill="#81818B" fill-opacity="0.2"/>
<rect x="36.3125" y="0.046875" width="10" height="10" rx="5" fill="#81818B" fill-opacity="0.2"/>
<rect x="52.3125" y="0.046875" width="10" height="10" rx="5" fill="#81818B" fill-opacity="0.2"/>
<rect x="68.3125" y="0.046875" width="10" height="10" rx="5" fill="#81818B" fill-opacity="0.2"/>
<rect x="84.3125" y="0.046875" width="10" height="10" rx="5" fill="#81818B" fill-opacity="0.2"/>
<rect x="100.312" y="0.046875" width="10" height="10" rx="5" fill="#81818B" fill-opacity="0.2"/>
<rect x="116.312" y="0.046875" width="10" height="10" rx="5" fill="#81818B" fill-opacity="0.2"/>
<rect x="4.3125" y="16.0469" width="10" height="10" rx="5" fill="#81818B" fill-opacity="0.2"/>
<rect x="20.3125" y="16.0469" width="10" height="10" rx="5" fill="#81818B" fill-opacity="0.2"/>
<rect x="36.3125" y="16.0469" width="10" height="10" rx="5" fill="#81818B" fill-opacity="0.2"/>
<rect x="52.3125" y="16.0469" width="10" height="10" rx="5" fill="#81818B" fill-opacity="0.2"/>
<rect x="68.3125" y="16.0469" width="10" height="10" rx="5" fill="#81818B" fill-opacity="0.2"/>
<rect x="84.3125" y="16.0469" width="10" height="10" rx="5" fill="#81818B" fill-opacity="0.2"/>
<rect x="100.312" y="16.0469" width="10" height="10" rx="5" fill="#81818B" fill-opacity="0.2"/>
<rect x="116.312" y="16.0469" width="10" height="10" rx="5" fill="#81818B" fill-opacity="0.2"/>
<rect x="4.3125" y="32.0469" width="10" height="10" rx="5" fill="#81818B" fill-opacity="0.2"/>
<rect x="20.3125" y="32.0469" width="10" height="10" rx="5" fill="#81818B" fill-opacity="0.2"/>
<rect x="36.3125" y="32.0469" width="10" height="10" rx="5" fill="#81818B" fill-opacity="0.2"/>
<rect x="52.3125" y="32.0469" width="10" height="10" rx="5" fill="#81818B" fill-opacity="0.2"/>
<rect x="68.3125" y="32.0469" width="10" height="10" rx="5" fill="#81818B" fill-opacity="0.2"/>
<rect x="84.3125" y="32.0469" width="10" height="10" rx="5" fill="#81818B" fill-opacity="0.2"/>
<rect x="100.312" y="32.0469" width="10" height="10" rx="5" fill="#81818B" fill-opacity="0.2"/>
<rect x="116.312" y="32.0469" width="10" height="10" rx="5" fill="#81818B" fill-opacity="0.2"/>
<rect x="4.3125" y="48.0469" width="10" height="10" rx="5" fill="#81818B" fill-opacity="0.2"/>
<rect x="20.3125" y="48.0469" width="10" height="10" rx="5" fill="#81818B" fill-opacity="0.2"/>
<rect x="36.3125" y="48.0469" width="10" height="10" rx="5" fill="#81818B" fill-opacity="0.2"/>
<rect x="52.3125" y="48.0469" width="10" height="10" rx="5" fill="#81818B" fill-opacity="0.2"/>
<rect x="68.3125" y="48.0469" width="10" height="10" rx="5" fill="#81818B" fill-opacity="0.2"/>
<rect x="84.3125" y="48.0469" width="10" height="10" rx="5" fill="#81818B" fill-opacity="0.2"/>
<rect x="100.312" y="48.0469" width="10" height="10" rx="5" fill="#81818B" fill-opacity="0.2"/>
<rect x="116.312" y="48.0469" width="10" height="10" rx="5" fill="#81818B" fill-opacity="0.2"/>
<rect x="4.3125" y="64.0469" width="10" height="10" rx="5" fill="#81818B" fill-opacity="0.2"/>
<rect x="20.3125" y="64.0469" width="10" height="10" rx="5" fill="#81818B" fill-opacity="0.2"/>
<rect x="36.3125" y="64.0469" width="10" height="10" rx="5" fill="#81818B" fill-opacity="0.2"/>
<rect x="52.3125" y="64.0469" width="10" height="10" rx="5" fill="#81818B" fill-opacity="0.2"/>
<rect x="68.3125" y="64.0469" width="10" height="10" rx="5" fill="#81818B" fill-opacity="0.2"/>
<rect x="84.3125" y="64.0469" width="10" height="10" rx="5" fill="#81818B" fill-opacity="0.2"/>
<rect x="100.312" y="64.0469" width="10" height="10" rx="5" fill="#81818B" fill-opacity="0.2"/>
<rect x="116.312" y="64.0469" width="10" height="10" rx="5" fill="#81818B" fill-opacity="0.2"/>
<rect x="4.3125" y="80.0469" width="10" height="10" rx="5" fill="#81818B" fill-opacity="0.2"/>
<rect x="20.3125" y="80.0469" width="10" height="10" rx="5" fill="#81818B" fill-opacity="0.2"/>
<rect x="36.3125" y="80.0469" width="10" height="10" rx="5" fill="#81818B" fill-opacity="0.2"/>
<rect x="52.3125" y="80.0469" width="10" height="10" rx="5" fill="#81818B" fill-opacity="0.2"/>
<rect x="68.3125" y="80.0469" width="10" height="10" rx="5" fill="#81818B" fill-opacity="0.2"/>
<rect x="84.3125" y="80.0469" width="10" height="10" rx="5" fill="#81818B" fill-opacity="0.2"/>
<rect x="100.312" y="80.0469" width="10" height="10" rx="5" fill="#81818B" fill-opacity="0.2"/>
<rect x="116.312" y="80.0469" width="10" height="10" rx="5" fill="#81818B" fill-opacity="0.2"/>
<rect x="4.3125" y="96.0469" width="10" height="10" rx="5" fill="#81818B" fill-opacity="0.2"/>
<rect x="20.3125" y="96.0469" width="10" height="10" rx="5" fill="#81818B" fill-opacity="0.2"/>
<rect x="36.3125" y="96.0469" width="10" height="10" rx="5" fill="#81818B" fill-opacity="0.2"/>
<rect x="52.3125" y="96.0469" width="10" height="10" rx="5" fill="#81818B" fill-opacity="0.2"/>
<rect x="68.3125" y="96.0469" width="10" height="10" rx="5" fill="#81818B" fill-opacity="0.2"/>
<rect x="84.3125" y="96.0469" width="10" height="10" rx="5" fill="#81818B" fill-opacity="0.2"/>
<rect x="100.312" y="96.0469" width="10" height="10" rx="5" fill="#81818B" fill-opacity="0.2"/>
<rect x="116.312" y="96.0469" width="10" height="10" rx="5" fill="#81818B" fill-opacity="0.2"/>
<rect x="4.3125" y="112.047" width="10" height="10" rx="5" fill="#81818B" fill-opacity="0.2"/>
<rect x="20.3125" y="112.047" width="10" height="10" rx="5" fill="#81818B" fill-opacity="0.2"/>
<rect x="36.3125" y="112.047" width="10" height="10" rx="5" fill="#81818B" fill-opacity="0.2"/>
<rect x="52.3125" y="112.047" width="10" height="10" rx="5" fill="#81818B" fill-opacity="0.2"/>
<rect x="68.3125" y="112.047" width="10" height="10" rx="5" fill="#81818B" fill-opacity="0.2"/>
<rect x="84.3125" y="112.047" width="10" height="10" rx="5" fill="#81818B" fill-opacity="0.2"/>
<rect x="100.312" y="112.047" width="10" height="10" rx="5" fill="#81818B" fill-opacity="0.2"/>
<rect x="116.312" y="112.047" width="10" height="10" rx="5" fill="#81818B" fill-opacity="0.2"/>
</g>
<defs>
<filter id="filter0_d_1_266" x="0.3125" y="0.046875" width="130" height="130" filterUnits="userSpaceOnUse" color-interpolation-filters="sRGB">
<feFlood flood-opacity="0" result="BackgroundImageFix"/>
<feColorMatrix in="SourceAlpha" type="matrix" values="0 0 0 0 0 0 0 0 0 0 0 0 0 0 0 0 0 0 127 0" result="hardAlpha"/>
<feOffset dy="4"/>
<feGaussianBlur stdDeviation="2"/>
<feComposite in2="hardAlpha" operator="out"/>
<feColorMatrix type="matrix" values="0 0 0 0 0 0 0 0 0 0 0 0 0 0 0 0 0 0 0.25 0"/>
<feBlend mode="normal" in2="BackgroundImageFix" result="effect1_dropShadow_1_266"/>
<feBlend mode="normal" in="SourceGraphic" in2="effect1_dropShadow_1_266" result="shape"/>
</filter>
</defs>
</svg>
